<?xml version="1.0" encoding="UTF-8" standalone="no"?>
<!-- Created with Inkscape (http://www.inkscape.org/) -->

<svg
   xmlns:dc="http://purl.org/dc/elements/1.1/"
   xmlns:cc="http://creativecommons.org/ns#"
   xmlns:rdf="http://www.w3.org/1999/02/22-rdf-syntax-ns#"
   xmlns:svg="http://www.w3.org/2000/svg"
   xmlns="http://www.w3.org/2000/svg"
   xmlns:xlink="http://www.w3.org/1999/xlink"
   xmlns:sodipodi="http://sodipodi.sourceforge.net/DTD/sodipodi-0.dtd"
   xmlns:inkscape="http://www.inkscape.org/namespaces/inkscape"
   width="210mm"
   height="297mm"
   id="svg2"
   version="1.1"
   inkscape:version="0.48.1 "
   sodipodi:docname="Clamping.svg">
  <defs
     id="defs4">
    <marker
       style="overflow:visible"
       id="DistanceEnd"
       refX="0.0"
       refY="0.0"
       orient="auto"
       inkscape:stockid="DistanceEnd">
      <g
         id="g3880">
        <path
           style="fill:none;stroke:#ffffff;stroke-width:1.15;stroke-linecap:square"
           d="M 0,0 L -2,0"
           id="path2316" />
        <path
           style="fill:#000000;fill-rule:evenodd;stroke:none"
           d="M 0,0 L -13,4 L -9,0 -13,-4 L 0,0 z "
           id="path2312" />
        <path
           style="fill:none;stroke:#000000;stroke-width:1;stroke-linecap:square"
           d="M 0,-4 L 0,40"
           id="path2314" />
      </g>
    </marker>
    <marker
       style="overflow:visible"
       id="DistanceStart"
       refX="0.0"
       refY="0.0"
       orient="auto"
       inkscape:stockid="DistanceStart">
      <g
         id="g2300">
        <path
           style="fill:none;stroke:#ffffff;stroke-width:1.15;stroke-linecap:square"
           d="M 0,0 L 2,0"
           id="path2306" />
        <path
           style="fill:#000000;fill-rule:evenodd;stroke:none"
           d="M 0,0 L 13,4 L 9,0 13,-4 L 0,0 z "
           id="path2302" />
        <path
           style="fill:none;stroke:#000000;stroke-width:1;stroke-linecap:square"
           d="M 0,-4 L 0,40"
           id="path2304" />
      </g>
    </marker>
    <marker
       inkscape:stockid="Arrow2Lend"
       orient="auto"
       refY="0.0"
       refX="0.0"
       id="Arrow2Lend"
       style="overflow:visible;">
      <path
         id="path4399"
         style="font-size:12.0;fill-rule:evenodd;stroke-width:0.62500000;stroke-linejoin:round;"
         d="M 8.7185878,4.0337352 L -2.2072895,0.016013256 L 8.7185884,-4.0017078 C 6.9730900,-1.6296469 6.9831476,1.6157441 8.7185878,4.0337352 z "
         transform="scale(1.1) rotate(180) translate(1,0)" />
    </marker>
    <inkscape:path-effect
       effect="skeletal"
       id="path-effect3001"
       is_visible="true"
       pattern="M 0,0 0,10 10,5 z"
       copytype="single_stretched"
       prop_scale="1"
       scale_y_rel="false"
       spacing="0"
       normal_offset="0"
       tang_offset="0"
       prop_units="false"
       vertical_pattern="false"
       fuse_tolerance="0" />
    <marker
       inkscape:stockid="Arrow2Lend"
       orient="auto"
       refY="0"
       refX="0"
       id="Arrow2Lend-3"
       style="overflow:visible">
      <path
         inkscape:connector-curvature="0"
         id="path4399-9"
         style="font-size:12px;fill-rule:evenodd;stroke-width:0.625;stroke-linejoin:round"
         d="M 8.7185878,4.0337352 -2.2072895,0.01601326 8.7185884,-4.0017078 c -1.7454984,2.3720609 -1.7354408,5.6174519 -6e-7,8.035443 z"
         transform="matrix(-1.1,0,0,-1.1,-1.1,0)" />
    </marker>
    <marker
       inkscape:stockid="Arrow2Lend"
       orient="auto"
       refY="0"
       refX="0"
       id="marker5563"
       style="overflow:visible">
      <path
         inkscape:connector-curvature="0"
         id="path5565"
         style="font-size:12px;fill-rule:evenodd;stroke-width:0.625;stroke-linejoin:round"
         d="M 8.7185878,4.0337352 -2.2072895,0.01601326 8.7185884,-4.0017078 c -1.7454984,2.3720609 -1.7354408,5.6174519 -6e-7,8.035443 z"
         transform="matrix(-1.1,0,0,-1.1,-1.1,0)" />
    </marker>
    <marker
       inkscape:stockid="Arrow2Lend"
       orient="auto"
       refY="0"
       refX="0"
       id="marker5567"
       style="overflow:visible">
      <path
         inkscape:connector-curvature="0"
         id="path5569"
         style="font-size:12px;fill-rule:evenodd;stroke-width:0.625;stroke-linejoin:round"
         d="M 8.7185878,4.0337352 -2.2072895,0.01601326 8.7185884,-4.0017078 c -1.7454984,2.3720609 -1.7354408,5.6174519 -6e-7,8.035443 z"
         transform="matrix(-1.1,0,0,-1.1,-1.1,0)" />
    </marker>
    <marker
       inkscape:stockid="Arrow2Lend"
       orient="auto"
       refY="0.0"
       refX="0.0"
       id="Arrow2Lend-2"
       style="overflow:visible;">
      <path
         id="path4399-7"
         style="font-size:12.0;fill-rule:evenodd;stroke-width:0.62500000;stroke-linejoin:round;"
         d="M 8.7185878,4.0337352 L -2.2072895,0.016013256 L 8.7185884,-4.0017078 C 6.9730900,-1.6296469 6.9831476,1.6157441 8.7185878,4.0337352 z "
         transform="scale(1.1) rotate(180) translate(1,0)" />
    </marker>
    <inkscape:path-effect
       effect="skeletal"
       id="path-effect3001-6"
       is_visible="true"
       pattern="M 0,0 0,10 10,5 z"
       copytype="single_stretched"
       prop_scale="1"
       scale_y_rel="false"
       spacing="0"
       normal_offset="0"
       tang_offset="0"
       prop_units="false"
       vertical_pattern="false"
       fuse_tolerance="0" />
    <marker
       inkscape:stockid="Arrow2Lend"
       orient="auto"
       refY="0"
       refX="0"
       id="Arrow2Lend-3-1"
       style="overflow:visible">
      <path
         inkscape:connector-curvature="0"
         id="path4399-9-4"
         style="font-size:12px;fill-rule:evenodd;stroke-width:0.625;stroke-linejoin:round"
         d="M 8.7185878,4.0337352 -2.2072895,0.01601326 8.7185884,-4.0017078 c -1.7454984,2.3720609 -1.7354408,5.6174519 -6e-7,8.035443 z"
         transform="matrix(-1.1,0,0,-1.1,-1.1,0)" />
    </marker>
    <marker
       inkscape:stockid="Arrow2Lend"
       orient="auto"
       refY="0"
       refX="0"
       id="marker5563-2"
       style="overflow:visible">
      <path
         inkscape:connector-curvature="0"
         id="path5565-3"
         style="font-size:12px;fill-rule:evenodd;stroke-width:0.625;stroke-linejoin:round"
         d="M 8.7185878,4.0337352 -2.2072895,0.01601326 8.7185884,-4.0017078 c -1.7454984,2.3720609 -1.7354408,5.6174519 -6e-7,8.035443 z"
         transform="matrix(-1.1,0,0,-1.1,-1.1,0)" />
    </marker>
    <marker
       inkscape:stockid="Arrow2Lend"
       orient="auto"
       refY="0"
       refX="0"
       id="marker5567-2"
       style="overflow:visible">
      <path
         inkscape:connector-curvature="0"
         id="path5569-2"
         style="font-size:12px;fill-rule:evenodd;stroke-width:0.625;stroke-linejoin:round"
         d="M 8.7185878,4.0337352 -2.2072895,0.01601326 8.7185884,-4.0017078 c -1.7454984,2.3720609 -1.7354408,5.6174519 -6e-7,8.035443 z"
         transform="matrix(-1.1,0,0,-1.1,-1.1,0)" />
    </marker>
    <marker
       inkscape:stockid="Arrow2Lend"
       orient="auto"
       refY="0.0"
       refX="0.0"
       id="Arrow2Lend-4"
       style="overflow:visible;">
      <path
         id="path4399-0"
         style="font-size:12.0;fill-rule:evenodd;stroke-width:0.62500000;stroke-linejoin:round;"
         d="M 8.7185878,4.0337352 L -2.2072895,0.016013256 L 8.7185884,-4.0017078 C 6.9730900,-1.6296469 6.9831476,1.6157441 8.7185878,4.0337352 z "
         transform="scale(1.1) rotate(180) translate(1,0)" />
    </marker>
    <inkscape:path-effect
       effect="skeletal"
       id="path-effect3001-9"
       is_visible="true"
       pattern="M 0,0 0,10 10,5 z"
       copytype="single_stretched"
       prop_scale="1"
       scale_y_rel="false"
       spacing="0"
       normal_offset="0"
       tang_offset="0"
       prop_units="false"
       vertical_pattern="false"
       fuse_tolerance="0" />
    <marker
       inkscape:stockid="Arrow2Lend"
       orient="auto"
       refY="0"
       refX="0"
       id="Arrow2Lend-3-4"
       style="overflow:visible">
      <path
         inkscape:connector-curvature="0"
         id="path4399-9-8"
         style="font-size:12px;fill-rule:evenodd;stroke-width:0.625;stroke-linejoin:round"
         d="M 8.7185878,4.0337352 -2.2072895,0.01601326 8.7185884,-4.0017078 c -1.7454984,2.3720609 -1.7354408,5.6174519 -6e-7,8.035443 z"
         transform="matrix(-1.1,0,0,-1.1,-1.1,0)" />
    </marker>
    <marker
       inkscape:stockid="Arrow2Lend"
       orient="auto"
       refY="0"
       refX="0"
       id="marker5563-8"
       style="overflow:visible">
      <path
         inkscape:connector-curvature="0"
         id="path5565-2"
         style="font-size:12px;fill-rule:evenodd;stroke-width:0.625;stroke-linejoin:round"
         d="M 8.7185878,4.0337352 -2.2072895,0.01601326 8.7185884,-4.0017078 c -1.7454984,2.3720609 -1.7354408,5.6174519 -6e-7,8.035443 z"
         transform="matrix(-1.1,0,0,-1.1,-1.1,0)" />
    </marker>
    <marker
       inkscape:stockid="Arrow2Lend"
       orient="auto"
       refY="0"
       refX="0"
       id="marker5567-4"
       style="overflow:visible">
      <path
         inkscape:connector-curvature="0"
         id="path5569-5"
         style="font-size:12px;fill-rule:evenodd;stroke-width:0.625;stroke-linejoin:round"
         d="M 8.7185878,4.0337352 -2.2072895,0.01601326 8.7185884,-4.0017078 c -1.7454984,2.3720609 -1.7354408,5.6174519 -6e-7,8.035443 z"
         transform="matrix(-1.1,0,0,-1.1,-1.1,0)" />
    </marker>
    <linearGradient
       id="linearGradient6893-4">
      <stop
         style="stop-color:#7f7fff;stop-opacity:1;"
         offset="0"
         id="stop3895" />
      <stop
         id="stop6897-7"
         offset="1"
         style="stop-color:#0000ff;stop-opacity:1;" />
    </linearGradient>
    <radialGradient
       gradientUnits="userSpaceOnUse"
       r="8.0710678"
       fy="391.21735"
       fx="166.67517"
       cy="391.21735"
       cx="166.67517"
       id="radialGradient6911-9"
       xlink:href="#linearGradient6893-4"
       inkscape:collect="always" />
    <linearGradient
       id="linearGradient6893-3">
      <stop
         id="stop6913-1"
         offset="0"
         style="stop-color:#ffffff;stop-opacity:1;" />
      <stop
         id="stop6897-18"
         offset="1"
         style="stop-color:#0000ff;stop-opacity:1;" />
    </linearGradient>
    <radialGradient
       gradientUnits="userSpaceOnUse"
       r="8.0710678"
       fy="391.21735"
       fx="166.67517"
       cy="391.21735"
       cx="166.67517"
       id="radialGradient6911-0"
       xlink:href="#linearGradient6893-3"
       inkscape:collect="always" />
    <linearGradient
       id="linearGradient6893-2">
      <stop
         id="stop6913-9"
         offset="0"
         style="stop-color:#ffffff;stop-opacity:1;" />
      <stop
         id="stop6897-8"
         offset="1"
         style="stop-color:#0000ff;stop-opacity:1;" />
    </linearGradient>
    <radialGradient
       gradientUnits="userSpaceOnUse"
       r="8.0710678"
       fy="391.21735"
       fx="166.67517"
       cy="391.21735"
       cx="166.67517"
       id="radialGradient6911-4"
       xlink:href="#linearGradient6893-2"
       inkscape:collect="always" />
    <linearGradient
       id="linearGradient6893-9">
      <stop
         id="stop6913-3"
         offset="0"
         style="stop-color:#ffffff;stop-opacity:1;" />
      <stop
         id="stop6897-1"
         offset="1"
         style="stop-color:#0000ff;stop-opacity:1;" />
    </linearGradient>
    <radialGradient
       gradientUnits="userSpaceOnUse"
       r="8.0710678"
       fy="391.21735"
       fx="166.67517"
       cy="391.21735"
       cx="166.67517"
       id="radialGradient6911-7"
       xlink:href="#linearGradient6893-9"
       inkscape:collect="always" />
    <marker
       style="overflow:visible"
       id="marker5567-3"
       refX="0"
       refY="0"
       orient="auto"
       inkscape:stockid="Arrow2Lend">
      <path
         transform="matrix(-1.1,0,0,-1.1,-1.1,0)"
         d="M 8.7185878,4.0337352 -2.2072895,0.01601326 8.7185884,-4.0017078 c -1.7454984,2.3720609 -1.7354408,5.6174519 -6e-7,8.035443 z"
         style="font-size:12px;fill-rule:evenodd;stroke-width:0.625;stroke-linejoin:round"
         id="path5569-9"
         inkscape:connector-curvature="0" />
    </marker>
    <marker
       style="overflow:visible"
       id="marker5563-1"
       refX="0"
       refY="0"
       orient="auto"
       inkscape:stockid="Arrow2Lend">
      <path
         transform="matrix(-1.1,0,0,-1.1,-1.1,0)"
         d="M 8.7185878,4.0337352 -2.2072895,0.01601326 8.7185884,-4.0017078 c -1.7454984,2.3720609 -1.7354408,5.6174519 -6e-7,8.035443 z"
         style="font-size:12px;fill-rule:evenodd;stroke-width:0.625;stroke-linejoin:round"
         id="path5565-4"
         inkscape:connector-curvature="0" />
    </marker>
    <marker
       style="overflow:visible"
       id="Arrow2Lend-3-5"
       refX="0"
       refY="0"
       orient="auto"
       inkscape:stockid="Arrow2Lend">
      <path
         transform="matrix(-1.1,0,0,-1.1,-1.1,0)"
         d="M 8.7185878,4.0337352 -2.2072895,0.01601326 8.7185884,-4.0017078 c -1.7454984,2.3720609 -1.7354408,5.6174519 -6e-7,8.035443 z"
         style="font-size:12px;fill-rule:evenodd;stroke-width:0.625;stroke-linejoin:round"
         id="path4399-9-6"
         inkscape:connector-curvature="0" />
    </marker>
    <inkscape:path-effect
       fuse_tolerance="0"
       vertical_pattern="false"
       prop_units="false"
       tang_offset="0"
       normal_offset="0"
       spacing="0"
       scale_y_rel="false"
       prop_scale="1"
       copytype="single_stretched"
       pattern="M 0,0 0,10 10,5 z"
       is_visible="true"
       id="path-effect3001-93"
       effect="skeletal" />
    <marker
       style="overflow:visible;"
       id="Arrow2Lend-9"
       refX="0.0"
       refY="0.0"
       orient="auto"
       inkscape:stockid="Arrow2Lend">
      <path
         transform="scale(1.1) rotate(180) translate(1,0)"
         d="M 8.7185878,4.0337352 L -2.2072895,0.016013256 L 8.7185884,-4.0017078 C 6.9730900,-1.6296469 6.9831476,1.6157441 8.7185878,4.0337352 z "
         style="font-size:12.0;fill-rule:evenodd;stroke-width:0.62500000;stroke-linejoin:round;"
         id="path4399-95" />
    </marker>
    <inkscape:perspective
       id="perspective3025"
       inkscape:persp3d-origin="-329.86462 : 563.74719 : 1"
       inkscape:vp_z="42.182616 : 739.14089 : 1"
       inkscape:vp_y="0 : 1000 : 0"
       inkscape:vp_x="-359.72436 : 676.64089 : 1"
       sodipodi:type="inkscape:persp3d" />
    <linearGradient
       id="linearGradient6893">
      <stop
         id="stop6913"
         offset="0"
         style="stop-color:#ffffff;stop-opacity:1;" />
      <stop
         id="stop6897"
         offset="1"
         style="stop-color:#0000ff;stop-opacity:1;" />
    </linearGradient>
  </defs>
  <sodipodi:namedview
     id="base"
     pagecolor="#ffffff"
     bordercolor="#666666"
     borderopacity="1.0"
     inkscape:pageopacity="0.0"
     inkscape:pageshadow="2"
     inkscape:zoom="0.90509668"
     inkscape:cx="779.07785"
     inkscape:cy="788.25672"
     inkscape:document-units="px"
     inkscape:current-layer="layer1"
     showgrid="false"
     inkscape:window-width="1920"
     inkscape:window-height="1018"
     inkscape:window-x="-8"
     inkscape:window-y="-8"
     inkscape:window-maximized="1"
     inkscape:snap-object-midpoints="true"
     inkscape:snap-center="true"
     inkscape:snap-grids="true">
    <inkscape:grid
       type="xygrid"
       id="grid3026" />
  </sodipodi:namedview>
  <metadata
     id="metadata7">
    <rdf:RDF>
      <cc:Work
         rdf:about="">
        <dc:format>image/svg+xml</dc:format>
        <dc:type
           rdf:resource="http://purl.org/dc/dcmitype/StillImage" />
        <dc:title></dc:title>
      </cc:Work>
    </rdf:RDF>
  </metadata>
  <g
     inkscape:label="Ebene 1"
     inkscape:groupmode="layer"
     id="layer1">
    <rect
       style="fill:#b3b3b3;stroke:#000000;stroke-width:3;stroke-miterlimit:4;stroke-opacity:1;stroke-dasharray:none"
       id="rect2989-4"
       width="240"
       height="240"
       x="1200.4005"
       y="122.29113" />
    <rect
       style="fill:#b3b3b3;stroke:#000000;stroke-width:3;stroke-miterlimit:4;stroke-opacity:1;stroke-dasharray:none"
       id="rect2989-1"
       width="240"
       height="240"
       x="660"
       y="122.36217" />
    <rect
       style="fill:#b3b3b3;stroke:#000000;stroke-width:3;stroke-miterlimit:4;stroke-opacity:1;stroke-dasharray:none"
       id="rect2989"
       width="240"
       height="240"
       x="120"
       y="122.36218" />
    <path
       style="fill:none;stroke:#000000;stroke-width:3;stroke-linecap:butt;stroke-linejoin:miter;stroke-miterlimit:4;stroke-opacity:1;stroke-dasharray:none"
       d="m 1200.4006,362.29112 240,-240"
       id="path4353-7"
       inkscape:connector-curvature="0" />
    <path
       style="fill:none;stroke:#000000;stroke-width:3;stroke-linecap:butt;stroke-linejoin:miter;stroke-miterlimit:4;stroke-opacity:1;stroke-dasharray:none"
       d="m 120,362.36218 240,-240"
       id="path4353-1"
       inkscape:connector-curvature="0" />
    <path
       style="fill:none;stroke:#000000;stroke-width:3;stroke-linecap:butt;stroke-linejoin:miter;stroke-opacity:1;stroke-miterlimit:4;stroke-dasharray:none"
       d="m 660,362.36218 240,-240"
       id="path4353"
       inkscape:connector-curvature="0" />
    <path
       sodipodi:type="arc"
       style="fill:#008000;stroke:#000080;stroke-width:2;stroke-miterlimit:4;stroke-opacity:1;stroke-dasharray:none"
       id="path3882"
       sodipodi:cx="166.67517"
       sodipodi:cy="391.21735"
       sodipodi:rx="7.0710678"
       sodipodi:ry="7.0710678"
       d="m 173.74624,391.21735 a 7.0710678,7.0710678 0 1 1 -14.14214,0 7.0710678,7.0710678 0 1 1 14.14214,0 z"
       transform="translate(-46.675171,-28.784094)" />
    <path
       sodipodi:type="arc"
       style="fill:#008000;stroke:#000080;stroke-width:2;stroke-miterlimit:4;stroke-opacity:1;stroke-dasharray:none"
       id="path3882-1"
       sodipodi:cx="166.67517"
       sodipodi:cy="391.21735"
       sodipodi:rx="7.0710678"
       sodipodi:ry="7.0710678"
       d="m 173.74624,391.21735 a 7.0710678,7.0710678 0 1 1 -14.14214,0 7.0710678,7.0710678 0 1 1 14.14214,0 z"
       transform="translate(193.32483,-28.855162)" />
    <path
       sodipodi:type="arc"
       style="fill:#008000;stroke:#000080;stroke-width:2;stroke-miterlimit:4;stroke-opacity:1;stroke-dasharray:none"
       id="path3882-8"
       sodipodi:cx="166.67517"
       sodipodi:cy="391.21735"
       sodipodi:rx="7.0710678"
       sodipodi:ry="7.0710678"
       d="m 173.74624,391.21735 a 7.0710678,7.0710678 0 1 1 -14.14214,0 7.0710678,7.0710678 0 1 1 14.14214,0 z"
       transform="translate(193.32483,-268.85516)" />
    <rect
       style="fill:none;stroke:#ff0000;stroke-width:2;stroke-miterlimit:4;stroke-opacity:1;stroke-dasharray:24, 24;stroke-dashoffset:12"
       id="rect2989-9"
       width="240"
       height="240"
       x="0"
       y="242.36218" />
    <rect
       style="fill:none;stroke:#ff0000;stroke-width:2;stroke-miterlimit:4;stroke-opacity:1;stroke-dasharray:24, 24;stroke-dashoffset:12"
       id="rect2989-9-2"
       width="240"
       height="240"
       x="-480"
       y="-482.36218"
       transform="scale(-1,-1)" />
    <rect
       style="fill:none;stroke:#ff0000;stroke-width:2;stroke-miterlimit:4;stroke-opacity:1;stroke-dasharray:24, 24;stroke-dashoffset:12"
       id="rect2989-9-6"
       width="240"
       height="240"
       x="240"
       y="2.3621826" />
    <path
       sodipodi:type="arc"
       style="fill:none;stroke:#ff0000;stroke-width:2;stroke-miterlimit:4;stroke-opacity:1;stroke-dasharray:none;stroke-dashoffset:0"
       id="path4270"
       sodipodi:cx="140"
       sodipodi:cy="362.36218"
       sodipodi:rx="120"
       sodipodi:ry="120"
       d="m 260,362.36218 a 120,120 0 1 1 -240,0 120,120 0 1 1 240,0 z"
       transform="translate(-20,1.6689301e-6)" />
    <path
       transform="translate(220,1.6689301e-6)"
       sodipodi:type="arc"
       style="fill:none;stroke:#ff0000;stroke-width:2;stroke-miterlimit:4;stroke-opacity:1;stroke-dasharray:none;stroke-dashoffset:0"
       id="path4270-3"
       sodipodi:cx="140"
       sodipodi:cy="362.36218"
       sodipodi:rx="120"
       sodipodi:ry="120"
       d="m 260,362.36218 a 120,120 0 1 1 -240,0 120,120 0 1 1 240,0 z" />
    <path
       transform="translate(220,-240)"
       sodipodi:type="arc"
       style="fill:none;stroke:#ff0000;stroke-width:2;stroke-miterlimit:4;stroke-opacity:1;stroke-dasharray:none;stroke-dashoffset:0"
       id="path4270-9"
       sodipodi:cx="140"
       sodipodi:cy="362.36218"
       sodipodi:rx="120"
       sodipodi:ry="120"
       d="m 260,362.36218 a 120,120 0 1 1 -240,0 120,120 0 1 1 240,0 z" />
    <rect
       style="fill:none;stroke:#ff0000;stroke-width:2;stroke-miterlimit:4;stroke-opacity:1;stroke-dasharray:24, 24;stroke-dashoffset:12"
       id="rect2989-9-0"
       width="240"
       height="240"
       x="540"
       y="242.36218" />
    <rect
       style="fill:none;stroke:#ff0000;stroke-width:2;stroke-miterlimit:4;stroke-opacity:1;stroke-dasharray:24, 24;stroke-dashoffset:12"
       id="rect2989-9-2-6"
       width="240"
       height="240"
       x="-1020"
       y="-482.36218"
       transform="scale(-1,-1)" />
    <rect
       style="fill:none;stroke:#ff0000;stroke-width:2;stroke-miterlimit:4;stroke-opacity:1;stroke-dasharray:24, 24;stroke-dashoffset:12"
       id="rect2989-9-6-5"
       width="240"
       height="240"
       x="780"
       y="2.3621733" />
    <path
       transform="translate(519.99997,-7.489336e-6)"
       sodipodi:type="arc"
       style="fill:none;stroke:#ff0000;stroke-width:2;stroke-miterlimit:4;stroke-opacity:1;stroke-dasharray:none;stroke-dashoffset:0"
       id="path4270-2"
       sodipodi:cx="140"
       sodipodi:cy="362.36218"
       sodipodi:rx="120"
       sodipodi:ry="120"
       d="m 260,362.36218 a 120,120 0 1 1 -240,0 120,120 0 1 1 240,0 z" />
    <path
       transform="translate(759.99997,-7.489336e-6)"
       sodipodi:type="arc"
       style="fill:none;stroke:#ff0000;stroke-width:2;stroke-miterlimit:4;stroke-opacity:1;stroke-dasharray:none;stroke-dashoffset:0"
       id="path4270-3-9"
       sodipodi:cx="140"
       sodipodi:cy="362.36218"
       sodipodi:rx="120"
       sodipodi:ry="120"
       d="m 260,362.36218 a 120,120 0 1 1 -240,0 120,120 0 1 1 240,0 z" />
    <path
       transform="translate(759.99997,-240.00001)"
       sodipodi:type="arc"
       style="fill:none;stroke:#ff0000;stroke-width:2;stroke-miterlimit:4;stroke-opacity:1;stroke-dasharray:none;stroke-dashoffset:0"
       id="path4270-9-9"
       sodipodi:cx="140"
       sodipodi:cy="362.36218"
       sodipodi:rx="120"
       sodipodi:ry="120"
       d="m 260,362.36218 a 120,120 0 1 1 -240,0 120,120 0 1 1 240,0 z" />
    <path
       sodipodi:type="arc"
       style="fill:#008000;stroke:#000080;stroke-width:2;stroke-miterlimit:4;stroke-opacity:1;stroke-dasharray:none"
       id="path3882-19"
       sodipodi:cx="166.67517"
       sodipodi:cy="391.21735"
       sodipodi:rx="7.0710678"
       sodipodi:ry="7.0710678"
       d="m 173.74624,391.21735 a 7.0710678,7.0710678 0 1 1 -14.14214,0 7.0710678,7.0710678 0 1 1 14.14214,0 z"
       transform="translate(578.32483,56.144836)" />
    <path
       sodipodi:type="arc"
       style="fill:#008000;stroke:#000080;stroke-width:2;stroke-miterlimit:4;stroke-opacity:1;stroke-dasharray:none"
       id="path3882-8-8"
       sodipodi:cx="166.67517"
       sodipodi:cy="391.21735"
       sodipodi:rx="7.0710678"
       sodipodi:ry="7.0710678"
       d="m 173.74624,391.21735 a 7.0710678,7.0710678 0 1 1 -14.14214,0 7.0710678,7.0710678 0 1 1 14.14214,0 z"
       transform="translate(818.32483,-183.85516)" />
    <path
       sodipodi:type="arc"
       style="fill:#008000;stroke:#000080;stroke-width:2;stroke-miterlimit:4;stroke-opacity:1;stroke-dasharray:none"
       id="path3882-1-2"
       sodipodi:cx="166.67517"
       sodipodi:cy="391.21735"
       sodipodi:rx="7.0710678"
       sodipodi:ry="7.0710678"
       d="m 173.74624,391.21735 a 7.0710678,7.0710678 0 1 1 -14.14214,0 7.0710678,7.0710678 0 1 1 14.14214,0 z"
       transform="translate(648.32483,-113.85516)" />
    <path
       style="fill:none;stroke:#000000;stroke-width:1.5;stroke-linecap:butt;stroke-linejoin:miter;stroke-opacity:1;marker-end:url(#Arrow2Lend);stroke-miterlimit:4;stroke-dasharray:none"
       d="m 670,372.36218 60,60"
       id="path4373"
       inkscape:connector-curvature="0" />
    <path
       style="fill:none;stroke:#000000;stroke-width:1.5;stroke-linecap:butt;stroke-linejoin:miter;stroke-opacity:1;marker-start:none;marker-mid:none;marker-end:url(#Arrow2Lend);stroke-miterlimit:4;stroke-dasharray:none"
       d="m 890,352.36218 -60,-60"
       id="path4819"
       inkscape:connector-curvature="0" />
    <path
       style="fill:none;stroke:#000000;stroke-width:1.5;stroke-linecap:butt;stroke-linejoin:miter;stroke-opacity:1;marker-end:url(#Arrow2Lend);stroke-miterlimit:4;stroke-dasharray:none"
       d="m 910,132.36218 60,60"
       id="path5367"
       inkscape:connector-curvature="0" />
    <path
       sodipodi:type="arc"
       style="fill:#008000;stroke:#000080;stroke-width:2;stroke-miterlimit:4;stroke-opacity:1;stroke-dasharray:none"
       id="path3882-3"
       sodipodi:cx="166.67517"
       sodipodi:cy="391.21735"
       sodipodi:rx="7.0710678"
       sodipodi:ry="7.0710678"
       d="m 173.74624,391.21735 a 7.0710678,7.0710678 0 1 1 -14.14214,0 7.0710678,7.0710678 0 1 1 14.14214,0 z"
       transform="translate(1033.7255,-28.855152)" />
    <path
       sodipodi:type="arc"
       style="fill:#008000;stroke:#000080;stroke-width:2;stroke-miterlimit:4;stroke-opacity:1;stroke-dasharray:none"
       id="path3882-1-6"
       sodipodi:cx="166.67517"
       sodipodi:cy="391.21735"
       sodipodi:rx="7.0710678"
       sodipodi:ry="7.0710678"
       d="m 173.74624,391.21735 a 7.0710678,7.0710678 0 1 1 -14.14214,0 7.0710678,7.0710678 0 1 1 14.14214,0 z"
       transform="translate(1273.7255,-28.92622)" />
    <path
       sodipodi:type="arc"
       style="fill:#008000;stroke:#000080;stroke-width:2;stroke-miterlimit:4;stroke-opacity:1;stroke-dasharray:none"
       id="path3882-8-3"
       sodipodi:cx="166.67517"
       sodipodi:cy="391.21735"
       sodipodi:rx="7.0710678"
       sodipodi:ry="7.0710678"
       d="m 173.74624,391.21735 a 7.0710678,7.0710678 0 1 1 -14.14214,0 7.0710678,7.0710678 0 1 1 14.14214,0 z"
       transform="translate(1273.7255,-268.92622)" />
    <rect
       style="fill:none;stroke:#ff0000;stroke-width:2;stroke-miterlimit:4;stroke-opacity:1;stroke-dasharray:none;stroke-dashoffset:0"
       id="rect5703"
       width="170.27217"
       height="170.27217"
       x="-847.47406"
       y="-1359.8313"
       transform="matrix(-0.70710709,0.70710647,-0.70710709,-0.70710647,0,0)" />
    <rect
       style="fill:none;stroke:#ff0000;stroke-width:2;stroke-miterlimit:4;stroke-opacity:1;stroke-dasharray:none;stroke-dashoffset:0"
       id="rect5703-0"
       width="170.27217"
       height="170.27217"
       x="-677.71826"
       y="-1190.176"
       transform="matrix(-0.70710709,0.70710647,-0.70710709,-0.70710647,0,0)" />
    <rect
       style="fill:none;stroke:#ff0000;stroke-width:2;stroke-miterlimit:4;stroke-opacity:1;stroke-dasharray:none;stroke-dashoffset:0"
       id="rect5703-2"
       width="170.27217"
       height="170.27217"
       x="-1017.1798"
       y="-1190.1256"
       transform="matrix(-0.70710709,0.70710647,-0.70710709,-0.70710647,0,0)" />
  </g>
</svg>
