<?xml version="1.0" encoding="UTF-8" standalone="no"?>
<!-- Created with Inkscape (http://www.inkscape.org/) -->

<svg
   xmlns:dc="http://purl.org/dc/elements/1.1/"
   xmlns:cc="http://creativecommons.org/ns#"
   xmlns:rdf="http://www.w3.org/1999/02/22-rdf-syntax-ns#"
   xmlns:svg="http://www.w3.org/2000/svg"
   xmlns="http://www.w3.org/2000/svg"
   xmlns:sodipodi="http://sodipodi.sourceforge.net/DTD/sodipodi-0.dtd"
   xmlns:inkscape="http://www.inkscape.org/namespaces/inkscape"
   version="1.1"
   width="210mm"
   height="297mm"
   id="svg3868"
   inkscape:version="0.48.1 "
   sodipodi:docname="EdgeCollapse.svg">
  <sodipodi:namedview
     pagecolor="#ffffff"
     bordercolor="#666666"
     borderopacity="1"
     objecttolerance="10"
     gridtolerance="10"
     guidetolerance="10"
     inkscape:pageopacity="0"
     inkscape:pageshadow="2"
     inkscape:window-width="1920"
     inkscape:window-height="1018"
     id="namedview79"
     showgrid="true"
     inkscape:snap-grids="true"
     inkscape:snap-bbox="true"
     inkscape:zoom="3.1284754"
     inkscape:cx="187.79392"
     inkscape:cy="939.81846"
     inkscape:window-x="-8"
     inkscape:window-y="-8"
     inkscape:window-maximized="1"
     inkscape:current-layer="svg3868">
    <inkscape:grid
       type="xygrid"
       id="grid3227" />
  </sodipodi:namedview>
  <defs
     id="defs3870" />
  <metadata
     id="metadata3873">
    <rdf:RDF>
      <cc:Work
         rdf:about="">
        <dc:format>image/svg+xml</dc:format>
        <dc:type
           rdf:resource="http://purl.org/dc/dcmitype/StillImage" />
        <dc:title />
      </cc:Work>
    </rdf:RDF>
  </metadata>
  <path
     inkscape:connector-curvature="0"
     style="fill:#bfbfbf;fill-opacity:1;fill-rule:nonzero;stroke:none"
     id="path2995"
     d="M 55.71875,50.455933 70.15625,75.54968 85.625,49.768433 l -29.90625,0.6875" />
  <path
     inkscape:connector-curvature="0"
     style="fill:#bfbfbf;fill-opacity:1;fill-rule:nonzero;stroke:none"
     id="path2997"
     d="m 62.16375,23.342183 -6.595,26.61875 30.05625,-0.1925 -23.46125,-26.42625" />
  <path
     inkscape:connector-curvature="0"
     style="fill:#ffffff;fill-opacity:1;fill-rule:nonzero;stroke:#000000;stroke-width:1.25;stroke-linecap:butt;stroke-linejoin:miter;stroke-miterlimit:4;stroke-opacity:1;stroke-dasharray:none"
     id="path2999"
     d="m 23.75,57.112183 31.81875,-7.15125" />
  <path
     inkscape:connector-curvature="0"
     style="fill:#ffffff;fill-opacity:1;fill-rule:nonzero;stroke:#000000;stroke-width:1.25;stroke-linecap:butt;stroke-linejoin:miter;stroke-miterlimit:4;stroke-opacity:1;stroke-dasharray:none"
     id="path3001"
     d="M 55.56875,49.960933 70.15625,75.54968" />
  <path
     inkscape:connector-curvature="0"
     style="fill:#ffffff;fill-opacity:1;fill-rule:nonzero;stroke:#000000;stroke-width:1.25;stroke-linecap:butt;stroke-linejoin:miter;stroke-miterlimit:4;stroke-opacity:1;stroke-dasharray:none"
     id="path3003"
     d="m 55.56875,49.960933 6.595,-26.61875" />
  <path
     inkscape:connector-curvature="0"
     style="fill:#ffffff;fill-opacity:1;fill-rule:nonzero;stroke:#000000;stroke-width:1.25;stroke-linecap:butt;stroke-linejoin:miter;stroke-miterlimit:4;stroke-opacity:1;stroke-dasharray:none"
     id="path3009"
     d="M 40.2275,71.44593 55.56875,49.960933" />
  <path
     inkscape:connector-curvature="0"
     style="fill:#ffffff;fill-opacity:1;fill-rule:nonzero;stroke:#000000;stroke-width:1.25;stroke-linecap:butt;stroke-linejoin:miter;stroke-miterlimit:4;stroke-opacity:1;stroke-dasharray:none"
     id="path3011"
     d="m 36.705,41.259683 18.86375,8.70125" />
  <path
     inkscape:connector-curvature="0"
     style="fill:#ffffff;fill-opacity:1;fill-rule:nonzero;stroke:#000000;stroke-width:1.25;stroke-linecap:butt;stroke-linejoin:miter;stroke-miterlimit:4;stroke-opacity:1;stroke-dasharray:none"
     id="path3013"
     d="m 36.705,41.259683 25.45875,-17.9175" />
  <path
     inkscape:connector-curvature="0"
     style="fill:#ffffff;fill-opacity:1;fill-rule:nonzero;stroke:#000000;stroke-width:1.25;stroke-linecap:butt;stroke-linejoin:miter;stroke-miterlimit:4;stroke-opacity:1;stroke-dasharray:none"
     id="path3015"
     d="M 62.16375,23.342183 93.23,24.695933" />
  <path
     inkscape:connector-curvature="0"
     style="fill:#ffffff;fill-opacity:1;fill-rule:nonzero;stroke:#000000;stroke-width:1.25;stroke-linecap:butt;stroke-linejoin:miter;stroke-miterlimit:4;stroke-opacity:1;stroke-dasharray:none"
     id="path3017"
     d="M 93.23,24.695933 120,49.549683" />
  <path
     inkscape:connector-curvature="0"
     style="fill:#ffffff;fill-opacity:1;fill-rule:nonzero;stroke:#000000;stroke-width:1.25;stroke-linecap:butt;stroke-linejoin:miter;stroke-miterlimit:4;stroke-opacity:1;stroke-dasharray:none"
     id="path3019"
     d="M 120,49.549683 102.79125,72.67093" />
  <path
     inkscape:connector-curvature="0"
     style="fill:#ffffff;fill-opacity:1;fill-rule:nonzero;stroke:#000000;stroke-width:1.25;stroke-linecap:butt;stroke-linejoin:miter;stroke-miterlimit:4;stroke-opacity:1;stroke-dasharray:none"
     id="path3021"
     d="m 102.79125,72.67093 -32.635,2.87875" />
  <path
     inkscape:connector-curvature="0"
     style="fill:#ffffff;fill-opacity:1;fill-rule:nonzero;stroke:#000000;stroke-width:1.25;stroke-linecap:butt;stroke-linejoin:miter;stroke-miterlimit:4;stroke-opacity:1;stroke-dasharray:none"
     id="path3023"
     d="M 70.15625,75.54968 40.2275,71.44593" />
  <path
     inkscape:connector-curvature="0"
     style="fill:#ffffff;fill-opacity:1;fill-rule:nonzero;stroke:#000000;stroke-width:1.25;stroke-linecap:butt;stroke-linejoin:miter;stroke-miterlimit:4;stroke-opacity:1;stroke-dasharray:none"
     id="path3025"
     d="M 70.15625,75.54968 85.625,49.768433" />
  <path
     inkscape:connector-curvature="0"
     style="fill:#ffffff;fill-opacity:1;fill-rule:nonzero;stroke:#000000;stroke-width:1.25;stroke-linecap:butt;stroke-linejoin:miter;stroke-miterlimit:4;stroke-opacity:1;stroke-dasharray:none"
     id="path3027"
     d="M 85.625,49.768433 102.79125,72.67093" />
  <path
     inkscape:connector-curvature="0"
     style="fill:#ffffff;fill-opacity:1;fill-rule:nonzero;stroke:#000000;stroke-width:1.25;stroke-linecap:butt;stroke-linejoin:miter;stroke-miterlimit:4;stroke-opacity:1;stroke-dasharray:none"
     id="path3029"
     d="m 120,49.549683 -34.375,0.21875" />
  <path
     inkscape:connector-curvature="0"
     style="fill:#ffffff;fill-opacity:1;fill-rule:nonzero;stroke:#000000;stroke-width:1.25;stroke-linecap:butt;stroke-linejoin:miter;stroke-miterlimit:4;stroke-opacity:1;stroke-dasharray:none"
     id="path3031"
     d="m 93.23,24.695933 -7.605,25.0725" />
  <path
     inkscape:connector-curvature="0"
     style="fill:#ffffff;fill-opacity:1;fill-rule:nonzero;stroke:#000000;stroke-width:1.25;stroke-linecap:butt;stroke-linejoin:miter;stroke-miterlimit:4;stroke-opacity:1;stroke-dasharray:none"
     id="path3033"
     d="M 62.16375,23.342183 85.625,49.768433" />
  <path
     inkscape:connector-curvature="0"
     style="fill:#ffffff;fill-opacity:1;fill-rule:nonzero;stroke:#000000;stroke-width:1.875;stroke-linecap:butt;stroke-linejoin:miter;stroke-miterlimit:4;stroke-opacity:1;stroke-dasharray:none"
     id="path3035"
     d="M 55.56875,49.960933 85.625,49.768433" />
  <path
     inkscape:connector-curvature="0"
     style="fill:#404040;fill-opacity:1;fill-rule:nonzero;stroke:#000000;stroke-width:1.25;stroke-linecap:butt;stroke-linejoin:miter;stroke-miterlimit:4;stroke-opacity:1;stroke-dasharray:none"
     id="path3037"
     d="m 55.56875,47.773433 c 1.2075,0 2.1875,0.98 2.1875,2.1875 0,1.20875 -0.98,2.18875 -2.1875,2.18875 -1.20875,0 -2.18875,-0.98 -2.18875,-2.18875 0,-1.2075 0.98,-2.1875 2.18875,-2.1875 z" />
  <path
     inkscape:connector-curvature="0"
     style="fill:#ffffff;fill-opacity:1;fill-rule:nonzero;stroke:#000000;stroke-width:1.25;stroke-linecap:butt;stroke-linejoin:miter;stroke-miterlimit:4;stroke-opacity:1;stroke-dasharray:none"
     id="path3039"
     d="m 62.16375,21.154683 c 1.20875,0 2.1875,0.98 2.1875,2.1875 0,1.20875 -0.97875,2.1875 -2.1875,2.1875 -1.2075,0 -2.1875,-0.97875 -2.1875,-2.1875 0,-1.2075 0.98,-2.1875 2.1875,-2.1875 z" />
  <path
     inkscape:connector-curvature="0"
     style="fill:#ffffff;fill-opacity:1;fill-rule:nonzero;stroke:#000000;stroke-width:1.25;stroke-linecap:butt;stroke-linejoin:miter;stroke-miterlimit:4;stroke-opacity:1;stroke-dasharray:none"
     id="path3041"
     d="m 93.23,22.508433 c 1.20875,0 2.1875,0.97875 2.1875,2.1875 0,1.2075 -0.97875,2.1875 -2.1875,2.1875 -1.2075,0 -2.1875,-0.98 -2.1875,-2.1875 0,-1.20875 0.98,-2.1875 2.1875,-2.1875 z" />
  <path
     inkscape:connector-curvature="0"
     style="fill:#ffffff;fill-opacity:1;fill-rule:nonzero;stroke:#000000;stroke-width:1.25;stroke-linecap:butt;stroke-linejoin:miter;stroke-miterlimit:4;stroke-opacity:1;stroke-dasharray:none"
     id="path3043"
     d="m 102.79125,70.48343 c 1.2075,0 2.1875,0.97875 2.1875,2.1875 0,1.2075 -0.98,2.1875 -2.1875,2.1875 -1.20875,0 -2.1875,-0.98 -2.1875,-2.1875 0,-1.20875 0.97875,-2.1875 2.1875,-2.1875 z" />
  <path
     inkscape:connector-curvature="0"
     style="fill:#ffffff;fill-opacity:1;fill-rule:nonzero;stroke:#000000;stroke-width:1.25;stroke-linecap:butt;stroke-linejoin:miter;stroke-miterlimit:4;stroke-opacity:1;stroke-dasharray:none"
     id="path3045"
     d="m 70.15625,73.36218 c 1.2075,0 2.1875,0.97875 2.1875,2.1875 0,1.2075 -0.98,2.1875 -2.1875,2.1875 -1.20875,0 -2.1875,-0.98 -2.1875,-2.1875 0,-1.20875 0.97875,-2.1875 2.1875,-2.1875 z" />
  <path
     inkscape:connector-curvature="0"
     style="fill:#ffffff;fill-opacity:1;fill-rule:nonzero;stroke:#000000;stroke-width:1.25;stroke-linecap:butt;stroke-linejoin:miter;stroke-miterlimit:4;stroke-opacity:1;stroke-dasharray:none"
     id="path3047"
     d="m 120,47.362183 c 1.20875,0 2.1875,0.97875 2.1875,2.1875 0,1.2075 -0.97875,2.1875 -2.1875,2.1875 -1.2075,0 -2.1875,-0.98 -2.1875,-2.1875 0,-1.20875 0.98,-2.1875 2.1875,-2.1875 z" />
  <path
     inkscape:connector-curvature="0"
     style="fill:#404040;fill-opacity:1;fill-rule:nonzero;stroke:#000000;stroke-width:1.25;stroke-linecap:butt;stroke-linejoin:miter;stroke-miterlimit:4;stroke-opacity:1;stroke-dasharray:none"
     id="path3049"
     d="m 85.625,47.580933 c 1.2075,0 2.1875,0.97875 2.1875,2.1875 0,1.2075 -0.98,2.1875 -2.1875,2.1875 -1.20875,0 -2.1875,-0.98 -2.1875,-2.1875 0,-1.20875 0.97875,-2.1875 2.1875,-2.1875 z" />
  <path
     inkscape:connector-curvature="0"
     style="fill:#ffffff;fill-opacity:1;fill-rule:nonzero;stroke:#000000;stroke-width:1.25;stroke-linecap:butt;stroke-linejoin:miter;stroke-miterlimit:4;stroke-opacity:1;stroke-dasharray:none"
     id="path3051"
     d="m 23.75,57.112183 12.955,-15.8525" />
  <path
     inkscape:connector-curvature="0"
     style="fill:#ffffff;fill-opacity:1;fill-rule:nonzero;stroke:#000000;stroke-width:1.25;stroke-linecap:butt;stroke-linejoin:miter;stroke-miterlimit:4;stroke-opacity:1;stroke-dasharray:none"
     id="path3053"
     d="M 23.75,57.112183 40.2275,71.44593" />
  <path
     inkscape:connector-curvature="0"
     style="fill:#ffffff;fill-opacity:1;fill-rule:nonzero;stroke:#000000;stroke-width:1.25;stroke-linecap:butt;stroke-linejoin:miter;stroke-miterlimit:4;stroke-opacity:1;stroke-dasharray:none"
     id="path3055"
     d="m 23.75,54.924683 c 1.2075,0 2.1875,0.97875 2.1875,2.1875 0,1.2075 -0.98,2.1875 -2.1875,2.1875 -1.20875,0 -2.1875,-0.98 -2.1875,-2.1875 0,-1.20875 0.97875,-2.1875 2.1875,-2.1875 z" />
  <path
     inkscape:connector-curvature="0"
     style="fill:#ffffff;fill-opacity:1;fill-rule:nonzero;stroke:#000000;stroke-width:1.25;stroke-linecap:butt;stroke-linejoin:miter;stroke-miterlimit:4;stroke-opacity:1;stroke-dasharray:none"
     id="path3057"
     d="m 36.705,39.072183 c 1.2075,0 2.1875,0.98 2.1875,2.1875 0,1.20875 -0.98,2.1875 -2.1875,2.1875 -1.20875,0 -2.1875,-0.97875 -2.1875,-2.1875 0,-1.2075 0.97875,-2.1875 2.1875,-2.1875 z" />
  <path
     inkscape:connector-curvature="0"
     style="fill:#ffffff;fill-opacity:1;fill-rule:nonzero;stroke:#000000;stroke-width:1.25;stroke-linecap:butt;stroke-linejoin:miter;stroke-miterlimit:4;stroke-opacity:1;stroke-dasharray:none"
     id="path3059"
     d="m 40.2275,69.25843 c 1.20875,0 2.18875,0.98 2.18875,2.1875 0,1.20875 -0.98,2.1875 -2.18875,2.1875 -1.2075,0 -2.18625,-0.97875 -2.18625,-2.1875 0,-1.2075 0.97875,-2.1875 2.18625,-2.1875 z" />
  <path
     inkscape:connector-curvature="0"
     style="fill:#ffffff;fill-opacity:1;fill-rule:nonzero;stroke:#000000;stroke-width:1.25;stroke-linecap:butt;stroke-linejoin:miter;stroke-miterlimit:4;stroke-opacity:1;stroke-dasharray:none"
     id="path3061"
     d="m 173.96875,57.103433 48.46875,-7.96625" />
  <path
     inkscape:connector-curvature="0"
     style="fill:#ffffff;fill-opacity:1;fill-rule:nonzero;stroke:#000000;stroke-width:1.25;stroke-linecap:butt;stroke-linejoin:miter;stroke-miterlimit:4;stroke-opacity:1;stroke-dasharray:none"
     id="path3063"
     d="M 222.4375,49.137183 220.37625,75.54093" />
  <path
     inkscape:connector-curvature="0"
     style="fill:#ffffff;fill-opacity:1;fill-rule:nonzero;stroke:#000000;stroke-width:1.25;stroke-linecap:butt;stroke-linejoin:miter;stroke-miterlimit:4;stroke-opacity:1;stroke-dasharray:none"
     id="path3065"
     d="m 222.4375,49.137183 -10.05375,-25.8025" />
  <path
     inkscape:connector-curvature="0"
     style="fill:#ffffff;fill-opacity:1;fill-rule:nonzero;stroke:#000000;stroke-width:1.25;stroke-linecap:butt;stroke-linejoin:miter;stroke-miterlimit:4;stroke-opacity:1;stroke-dasharray:none"
     id="path3071"
     d="m 190.4475,71.43843 31.99,-22.301247" />
  <path
     inkscape:connector-curvature="0"
     style="fill:#ffffff;fill-opacity:1;fill-rule:nonzero;stroke:#000000;stroke-width:1.25;stroke-linecap:butt;stroke-linejoin:miter;stroke-miterlimit:4;stroke-opacity:1;stroke-dasharray:none"
     id="path3073"
     d="m 186.92375,41.252183 35.51375,7.885" />
  <path
     inkscape:connector-curvature="0"
     style="fill:#ffffff;fill-opacity:1;fill-rule:nonzero;stroke:#000000;stroke-width:1.25;stroke-linecap:butt;stroke-linejoin:miter;stroke-miterlimit:4;stroke-opacity:1;stroke-dasharray:none"
     id="path3075"
     d="m 186.92375,41.252183 25.46,-17.9175" />
  <path
     inkscape:connector-curvature="0"
     style="fill:#ffffff;fill-opacity:1;fill-rule:nonzero;stroke:#000000;stroke-width:1.25;stroke-linecap:butt;stroke-linejoin:miter;stroke-miterlimit:4;stroke-opacity:1;stroke-dasharray:none"
     id="path3077"
     d="m 212.38375,23.334683 31.06625,1.3525" />
  <path
     inkscape:connector-curvature="0"
     style="fill:#ffffff;fill-opacity:1;fill-rule:nonzero;stroke:#000000;stroke-width:1.25;stroke-linecap:butt;stroke-linejoin:miter;stroke-miterlimit:4;stroke-opacity:1;stroke-dasharray:none"
     id="path3079"
     d="m 243.45,24.687183 26.77,24.85375" />
  <path
     inkscape:connector-curvature="0"
     style="fill:#ffffff;fill-opacity:1;fill-rule:nonzero;stroke:#000000;stroke-width:1.25;stroke-linecap:butt;stroke-linejoin:miter;stroke-miterlimit:4;stroke-opacity:1;stroke-dasharray:none"
     id="path3081"
     d="M 270.22,49.540933 253.01125,72.66218" />
  <path
     inkscape:connector-curvature="0"
     style="fill:#ffffff;fill-opacity:1;fill-rule:nonzero;stroke:#000000;stroke-width:1.25;stroke-linecap:butt;stroke-linejoin:miter;stroke-miterlimit:4;stroke-opacity:1;stroke-dasharray:none"
     id="path3083"
     d="m 253.01125,72.66218 -32.635,2.87875" />
  <path
     inkscape:connector-curvature="0"
     style="fill:#ffffff;fill-opacity:1;fill-rule:nonzero;stroke:#000000;stroke-width:1.25;stroke-linecap:butt;stroke-linejoin:miter;stroke-miterlimit:4;stroke-opacity:1;stroke-dasharray:none"
     id="path3085"
     d="M 220.37625,75.54093 190.4475,71.43843" />
  <path
     inkscape:connector-curvature="0"
     style="fill:#ffffff;fill-opacity:1;fill-rule:nonzero;stroke:#000000;stroke-width:1.25;stroke-linecap:butt;stroke-linejoin:miter;stroke-miterlimit:4;stroke-opacity:1;stroke-dasharray:none"
     id="path3091"
     d="M 222.4375,49.137183 253.01125,72.66218" />
  <path
     inkscape:connector-curvature="0"
     style="fill:#ffffff;fill-opacity:1;fill-rule:nonzero;stroke:#000000;stroke-width:1.25;stroke-linecap:butt;stroke-linejoin:miter;stroke-miterlimit:4;stroke-opacity:1;stroke-dasharray:none"
     id="path3093"
     d="m 270.22,49.540933 -47.7825,-0.40375" />
  <path
     inkscape:connector-curvature="0"
     style="fill:#ffffff;fill-opacity:1;fill-rule:nonzero;stroke:#000000;stroke-width:1.25;stroke-linecap:butt;stroke-linejoin:miter;stroke-miterlimit:4;stroke-opacity:1;stroke-dasharray:none"
     id="path3095"
     d="m 243.45,24.687183 -21.0125,24.45" />
  <path
     inkscape:connector-curvature="0"
     style="fill:#404040;fill-opacity:1;fill-rule:nonzero;stroke:#000000;stroke-width:1.25;stroke-linecap:butt;stroke-linejoin:miter;stroke-miterlimit:4;stroke-opacity:1;stroke-dasharray:none"
     id="path3105"
     d="m 222.4375,46.949683 c 1.20875,0 2.18875,0.97875 2.18875,2.1875 0,1.2075 -0.98,2.1875 -2.18875,2.1875 -1.2075,0 -2.1875,-0.98 -2.1875,-2.1875 0,-1.20875 0.98,-2.1875 2.1875,-2.1875 z" />
  <path
     inkscape:connector-curvature="0"
     style="fill:#ffffff;fill-opacity:1;fill-rule:nonzero;stroke:#000000;stroke-width:1.25;stroke-linecap:butt;stroke-linejoin:miter;stroke-miterlimit:4;stroke-opacity:1;stroke-dasharray:none"
     id="path3107"
     d="m 212.38375,21.145933 c 1.2075,0 2.1875,0.98 2.1875,2.18875 0,1.2075 -0.98,2.1875 -2.1875,2.1875 -1.20875,0 -2.1875,-0.98 -2.1875,-2.1875 0,-1.20875 0.97875,-2.18875 2.1875,-2.18875 z" />
  <path
     inkscape:connector-curvature="0"
     style="fill:#ffffff;fill-opacity:1;fill-rule:nonzero;stroke:#000000;stroke-width:1.25;stroke-linecap:butt;stroke-linejoin:miter;stroke-miterlimit:4;stroke-opacity:1;stroke-dasharray:none"
     id="path3109"
     d="m 243.45,22.499683 c 1.2075,0 2.1875,0.98 2.1875,2.1875 0,1.20875 -0.98,2.1875 -2.1875,2.1875 -1.2075,0 -2.1875,-0.97875 -2.1875,-2.1875 0,-1.2075 0.98,-2.1875 2.1875,-2.1875 z" />
  <path
     inkscape:connector-curvature="0"
     style="fill:#ffffff;fill-opacity:1;fill-rule:nonzero;stroke:#000000;stroke-width:1.25;stroke-linecap:butt;stroke-linejoin:miter;stroke-miterlimit:4;stroke-opacity:1;stroke-dasharray:none"
     id="path3111"
     d="m 253.01125,70.47468 c 1.2075,0 2.1875,0.98 2.1875,2.1875 0,1.20875 -0.98,2.1875 -2.1875,2.1875 -1.20875,0 -2.18875,-0.97875 -2.18875,-2.1875 0,-1.2075 0.98,-2.1875 2.18875,-2.1875 z" />
  <path
     inkscape:connector-curvature="0"
     style="fill:#ffffff;fill-opacity:1;fill-rule:nonzero;stroke:#000000;stroke-width:1.25;stroke-linecap:butt;stroke-linejoin:miter;stroke-miterlimit:4;stroke-opacity:1;stroke-dasharray:none"
     id="path3113"
     d="m 220.37625,73.35343 c 1.2075,0 2.1875,0.98 2.1875,2.1875 0,1.20875 -0.98,2.18875 -2.1875,2.18875 -1.20875,0 -2.18875,-0.98 -2.18875,-2.18875 0,-1.2075 0.98,-2.1875 2.18875,-2.1875 z" />
  <path
     inkscape:connector-curvature="0"
     style="fill:#ffffff;fill-opacity:1;fill-rule:nonzero;stroke:#000000;stroke-width:1.25;stroke-linecap:butt;stroke-linejoin:miter;stroke-miterlimit:4;stroke-opacity:1;stroke-dasharray:none"
     id="path3115"
     d="m 270.22,47.353433 c 1.2075,0 2.1875,0.98 2.1875,2.1875 0,1.20875 -0.98,2.1875 -2.1875,2.1875 -1.20875,0 -2.1875,-0.97875 -2.1875,-2.1875 0,-1.2075 0.97875,-2.1875 2.1875,-2.1875 z" />
  <path
     inkscape:connector-curvature="0"
     style="fill:#ffffff;fill-opacity:1;fill-rule:nonzero;stroke:#000000;stroke-width:1.25;stroke-linecap:butt;stroke-linejoin:miter;stroke-miterlimit:4;stroke-opacity:1;stroke-dasharray:none"
     id="path3117"
     d="m 173.96875,57.103433 12.955,-15.85125" />
  <path
     inkscape:connector-curvature="0"
     style="fill:#ffffff;fill-opacity:1;fill-rule:nonzero;stroke:#000000;stroke-width:1.25;stroke-linecap:butt;stroke-linejoin:miter;stroke-miterlimit:4;stroke-opacity:1;stroke-dasharray:none"
     id="path3119"
     d="M 173.96875,57.103433 190.4475,71.43843" />
  <path
     inkscape:connector-curvature="0"
     style="fill:#ffffff;fill-opacity:1;fill-rule:nonzero;stroke:#000000;stroke-width:1.25;stroke-linecap:butt;stroke-linejoin:miter;stroke-miterlimit:4;stroke-opacity:1;stroke-dasharray:none"
     id="path3121"
     d="m 173.96875,54.915933 c 1.20875,0 2.1875,0.98 2.1875,2.1875 0,1.20875 -0.97875,2.18875 -2.1875,2.18875 -1.2075,0 -2.1875,-0.98 -2.1875,-2.18875 0,-1.2075 0.98,-2.1875 2.1875,-2.1875 z" />
  <path
     inkscape:connector-curvature="0"
     style="fill:#ffffff;fill-opacity:1;fill-rule:nonzero;stroke:#000000;stroke-width:1.25;stroke-linecap:butt;stroke-linejoin:miter;stroke-miterlimit:4;stroke-opacity:1;stroke-dasharray:none"
     id="path3123"
     d="m 186.92375,39.064683 c 1.20875,0 2.18875,0.97875 2.18875,2.1875 0,1.20875 -0.98,2.1875 -2.18875,2.1875 -1.2075,0 -2.1875,-0.97875 -2.1875,-2.1875 0,-1.20875 0.98,-2.1875 2.1875,-2.1875 z" />
  <path
     inkscape:connector-curvature="0"
     style="fill:#ffffff;fill-opacity:1;fill-rule:nonzero;stroke:#000000;stroke-width:1.25;stroke-linecap:butt;stroke-linejoin:miter;stroke-miterlimit:4;stroke-opacity:1;stroke-dasharray:none"
     id="path3125"
     d="m 190.4475,69.24968 c 1.20875,0 2.1875,0.98 2.1875,2.18875 0,1.2075 -0.97875,2.1875 -2.1875,2.1875 -1.2075,0 -2.1875,-0.98 -2.1875,-2.1875 0,-1.20875 0.98,-2.18875 2.1875,-2.18875 z" />
  <path
     inkscape:connector-curvature="0"
     style="fill:#000000;fill-opacity:1;fill-rule:nonzero;stroke:#000000;stroke-width:4;stroke-linecap:round;stroke-linejoin:miter;stroke-miterlimit:4;stroke-opacity:1;stroke-dasharray:none"
     id="path3127"
     d="m 130.92375,51.890933 25.3,0" />
  <path
     inkscape:connector-curvature="0"
     style="fill:#000000;fill-opacity:1;fill-rule:nonzero;stroke:#000000;stroke-width:1;stroke-linecap:butt;stroke-linejoin:miter;stroke-miterlimit:4;stroke-opacity:1;stroke-dasharray:none"
     id="path3129"
     d="m 163.99125,51.890933 -10.945,4.47125 2.5975,-4.47125 -2.5975,-4.47125 10.945,4.47125 z" />
  <text
     style="font-size:15px"
     id="text3139"
     y="62.970924"
     x="51.719997">
    <tspan
       style="font-size:10px;font-variant:normal;font-weight:bold;writing-mode:lr-tb;fill:#000000;fill-opacity:1;fill-rule:nonzero;stroke:none;font-family:Times New Roman;-inkscape-font-specification:Times-Bold"
       id="tspan3141"
       y="62.970924"
       x="51.719997">v</tspan>
  </text>
  <text
     style="font-size:15px"
     id="text3143"
     y="66.720924"
     x="56.720001">
    <tspan
       style="font-size:7.5px;font-variant:normal;font-weight:normal;writing-mode:lr-tb;fill:#000000;fill-opacity:1;fill-rule:nonzero;stroke:none;font-family:Times New Roman;-inkscape-font-specification:Times-Roman"
       id="tspan3145"
       y="66.720924"
       x="56.720001">1</tspan>
  </text>
  <text
     style="font-size:15px"
     id="text3147"
     y="44.220932"
     x="92.345001">
    <tspan
       style="font-size:10px;font-variant:normal;font-weight:bold;writing-mode:lr-tb;fill:#000000;fill-opacity:1;fill-rule:nonzero;stroke:none;font-family:Times New Roman;-inkscape-font-specification:Times-Bold"
       id="tspan3149"
       y="44.220932"
       x="92.345001">v</tspan>
  </text>
  <text
     style="font-size:15px"
     id="text3151"
     y="47.970932"
     x="97.345001">
    <tspan
       style="font-size:7.5px;font-variant:normal;font-weight:normal;writing-mode:lr-tb;fill:#000000;fill-opacity:1;fill-rule:nonzero;stroke:none;font-family:Times New Roman;-inkscape-font-specification:Times-Roman"
       id="tspan3153"
       y="47.970932"
       x="97.345001">2</tspan>
  </text>
  <text
     style="font-size:15px"
     id="text3155"
     y="41.095932"
     x="221.095">
    <tspan
       style="font-size:10px;font-variant:normal;font-weight:bold;writing-mode:lr-tb;fill:#000000;fill-opacity:1;fill-rule:nonzero;stroke:none;font-family:Times New Roman;-inkscape-font-specification:Times-Bold"
       id="tspan3157"
       y="41.095932"
       x="221.095">v</tspan>
  </text>
  <path
     inkscape:connector-curvature="0"
     style="fill:none;stroke:#000000;stroke-width:1.25;stroke-linecap:butt;stroke-linejoin:miter;stroke-miterlimit:4;stroke-opacity:1;stroke-dasharray:none"
     id="path3159"
     d="m 222.0325,34.845933 3.125,0" />
  <text
     xml:space="preserve"
     style="font-size:24px;font-style:normal;font-variant:normal;font-weight:normal;font-stretch:normal;line-height:125%;letter-spacing:0px;word-spacing:0px;fill:#000000;fill-opacity:1;stroke:none;font-family:Garamond;-inkscape-font-specification:Garamond;text-anchor:middle;text-align:center"
     x="71.14502"
     y="87.171753"
     id="text3129"
     sodipodi:linespacing="125%"><tspan
       sodipodi:role="line"
       id="tspan3131"
       x="57.207031"
       y="87.171753"
       style="font-size:10px;text-anchor:middle;text-align:center">Vorher</tspan></text>
  <text
     xml:space="preserve"
     style="font-size:24px;font-style:normal;font-variant:normal;font-weight:normal;font-stretch:normal;text-align:center;line-height:125%;letter-spacing:0px;word-spacing:0px;text-anchor:middle;fill:#000000;fill-opacity:1;stroke:none;font-family:Garamond;-inkscape-font-specification:Garamond"
     x="221.14502"
     y="87.171753"
     id="text3129-1"
     sodipodi:linespacing="125%"><tspan
       sodipodi:role="line"
       id="tspan3131-9"
       x="221.14502"
       y="87.171753"
       style="font-size:10px;text-align:center;text-anchor:middle">Nachher</tspan></text>
  <text
     xml:space="preserve"
     style="font-size:24px;font-style:normal;font-variant:normal;font-weight:normal;font-stretch:normal;text-align:center;line-height:125%;letter-spacing:0px;word-spacing:0px;text-anchor:middle;fill:#000000;fill-opacity:1;stroke:none;font-family:Garamond;-inkscape-font-specification:Garamond"
     x="150"
     y="42.362183"
     id="text3129-5"
     sodipodi:linespacing="125%"><tspan
       sodipodi:role="line"
       id="tspan3131-98"
       x="150"
       y="42.362183"
       style="font-size:10px;text-align:center;text-anchor:middle">Kontraktion</tspan></text>
</svg>
